<svg width="236" height="104" viewBox="0 0 236 104" fill="none" xmlns="http://www.w3.org/2000/svg">
<path d="M151.235 19.0273L154.238 11.9698L144.102 6.11356L154.238 11.9698L151.235 19.0273Z" fill="url(#paint0_linear_1_7)"/>
<path d="M65.419 56.2668C65.4941 56.1166 65.6442 55.9664 65.8695 55.8163C66.395 55.516 66.8455 55.1406 67.3711 54.8402C71.2752 30.3643 92.5228 11.5944 118.05 11.5944C139.973 11.5944 158.668 25.409 166.026 44.7796L167.002 44.9297C167.828 45.0048 168.578 45.155 169.404 45.23C169.029 44.0288 168.578 42.9026 168.053 41.7764L167.828 41.2508L168.278 40.9505L173.909 36.746L168.654 27.6614L162.197 30.4393L161.671 30.6646L161.371 30.2141C158.293 26.1598 154.764 22.6311 150.71 19.5528L150.259 19.2525L150.484 18.7269L153.262 12.2701L144.178 7.01449L139.973 12.6455L139.673 13.0959L139.147 12.8707C134.567 10.9186 129.612 9.64228 124.582 8.96657L124.056 8.89148L123.981 8.36593L123.155 1.38351H112.644L111.818 8.36593L111.743 8.89148L111.218 8.96657C106.187 9.5672 101.232 10.9186 96.6521 12.8707L96.1266 13.0959L95.8263 12.6455L91.6218 7.01449L82.5372 12.2701L85.3151 18.7269L85.5403 19.2525L85.0899 19.5528C81.0356 22.6311 77.5068 26.1598 74.4285 30.2141L74.1282 30.6646L73.6027 30.4393L67.1458 27.6614L61.8902 36.746L67.5212 40.9505L67.9717 41.2508L67.7465 41.7764C65.7944 46.3562 64.518 51.2364 63.8423 56.2668C63.9174 56.2668 63.9925 56.2668 64.0676 56.2668C64.6682 56.2668 65.0436 56.2668 65.419 56.2668Z" fill="url(#paint1_linear_1_7)"/>
<path d="M118.05 11.5944C92.5228 11.5944 71.2752 30.3643 67.3711 54.8403C67.5963 54.6901 67.8966 54.54 68.1969 54.3147C72.3263 30.4394 93.0483 12.2701 118.125 12.2701C139.673 12.2701 157.992 25.7094 165.35 44.6294L166.101 44.7045C158.668 25.409 139.973 11.5944 118.05 11.5944Z" fill="url(#paint2_linear_1_7)"/>
<path d="M118.05 11.5944C92.5228 11.5944 71.2752 30.3643 67.3711 54.8403C67.5963 54.6901 67.8966 54.54 68.1969 54.3147C72.3263 30.4394 93.0483 12.2701 118.125 12.2701C139.673 12.2701 157.992 25.7094 165.35 44.6294L166.101 44.7045C158.668 25.409 139.973 11.5944 118.05 11.5944Z" fill="url(#paint3_linear_1_7)"/>
<path d="M174.885 36.8962L169.029 26.7605L162.047 29.7637C158.968 25.7094 155.364 22.0304 151.235 18.9522L154.238 11.9698L144.103 6.11356L139.523 12.2701C134.868 10.318 129.912 8.96659 124.807 8.36595L123.906 0.782898H112.194L111.293 8.36595C106.112 8.96659 101.157 10.318 96.577 12.2701L91.9972 6.11356L81.8614 11.9698L84.8646 18.9522C80.8103 22.0304 77.1314 25.6343 74.0531 29.7637L67.0707 26.7605L61.2145 36.8962L67.3711 41.4761C65.419 46.131 64.0676 51.0112 63.4669 56.1917C63.6922 56.1917 63.9174 56.1917 64.1426 56.1917C64.7433 51.1614 66.0947 46.2812 68.0468 41.7013L68.272 41.1758L67.8215 40.8755L62.1906 36.671L67.4461 27.5863L73.903 30.3643L74.4285 30.5895L74.7289 30.1391C77.8071 26.0848 81.3359 22.556 85.3902 19.4777L85.8407 19.1774L85.6154 18.6519L82.7624 12.2701L91.847 7.01451L96.0515 12.6455L96.3518 13.096L96.8774 12.8707C101.457 10.9187 106.412 9.64231 111.443 8.96659L111.968 8.89151L112.043 8.36595L112.869 1.38354H123.381L124.206 8.36595L124.281 8.89151L124.807 8.96659C129.837 9.56723 134.793 10.9187 139.372 12.8707L139.898 13.096L140.198 12.6455L144.403 7.01451L153.487 12.2701L150.71 18.7269L150.484 19.2525L150.935 19.5528C154.989 22.6311 158.518 26.1598 161.596 30.2141L161.896 30.6646L162.422 30.4394L168.879 27.6614L174.134 36.7461L168.503 40.9505L168.053 41.2509L168.278 41.7764C168.729 42.9026 169.179 44.1039 169.63 45.2301C169.855 45.2301 170.155 45.3051 170.38 45.3051C169.93 44.0288 169.479 42.7524 168.954 41.4761L174.885 36.8962Z" fill="url(#paint4_linear_1_7)"/>
<path d="M174.885 36.8962L169.029 26.7605L162.047 29.7637C158.968 25.7094 155.364 22.0304 151.235 18.9522L154.238 11.9698L144.103 6.11356L139.523 12.2701C134.868 10.318 129.912 8.96659 124.807 8.36595L123.906 0.782898H112.194L111.293 8.36595C106.112 8.96659 101.157 10.318 96.577 12.2701L91.9972 6.11356L81.8614 11.9698L84.8646 18.9522C80.8103 22.0304 77.1314 25.6343 74.0531 29.7637L67.0707 26.7605L61.2145 36.8962L67.3711 41.4761C65.419 46.131 64.0676 51.0112 63.4669 56.1917C63.6922 56.1917 63.9174 56.1917 64.1426 56.1917C64.7433 51.1614 66.0947 46.2812 68.0468 41.7013L68.272 41.1758L67.8215 40.8755L62.1906 36.671L67.4461 27.5863L73.903 30.3643L74.4285 30.5895L74.7289 30.1391C77.8071 26.0848 81.3359 22.556 85.3902 19.4777L85.8407 19.1774L85.6154 18.6519L82.7624 12.2701L91.847 7.01451L96.0515 12.6455L96.3518 13.096L96.8774 12.8707C101.457 10.9187 106.412 9.64231 111.443 8.96659L111.968 8.89151L112.043 8.36595L112.869 1.38354H123.381L124.206 8.36595L124.281 8.89151L124.807 8.96659C129.837 9.56723 134.793 10.9187 139.372 12.8707L139.898 13.096L140.198 12.6455L144.403 7.01451L153.487 12.2701L150.71 18.7269L150.484 19.2525L150.935 19.5528C154.989 22.6311 158.518 26.1598 161.596 30.2141L161.896 30.6646L162.422 30.4394L168.879 27.6614L174.134 36.7461L168.503 40.9505L168.053 41.2509L168.278 41.7764C168.729 42.9026 169.179 44.1039 169.63 45.2301C169.855 45.2301 170.155 45.3051 170.38 45.3051C169.93 44.0288 169.479 42.7524 168.954 41.4761L174.885 36.8962Z" fill="url(#paint5_linear_1_7)"/>
<path d="M118.05 16.3995C96.2767 16.3995 77.9573 31.4154 72.8519 51.6118C73.903 51.0863 74.9541 50.4856 76.0803 49.9601C81.6362 32.0911 98.3039 19.1023 117.975 19.1023C135.243 19.1023 150.184 29.0879 157.316 43.5783L160.47 44.0288C153.337 27.7365 136.97 16.3995 118.05 16.3995Z" fill="#8C1A1C"/>
<path d="M118.05 19.4026C98.6793 19.4026 82.1618 32.1662 76.5308 49.7348C76.6809 49.6598 76.8311 49.5847 76.9813 49.5096C82.6873 32.2413 98.9045 19.703 118.05 19.703C134.868 19.703 149.433 29.3882 156.641 43.4281L157.016 43.5032C149.884 29.2381 135.093 19.4026 118.05 19.4026Z" fill="#8C1A1C"/>
<path d="M118.05 16.3995C136.97 16.3995 153.337 27.7365 160.62 44.0288L160.995 44.1039C153.713 27.5864 137.195 16.0992 118.05 16.0992C95.9764 16.0992 77.5068 31.3404 72.4765 51.9122C72.6266 51.8371 72.7017 51.762 72.8519 51.6869C77.9573 31.4154 96.2767 16.3995 118.05 16.3995Z" fill="#8B191C"/>
<path d="M0.925552 82.6948C3.47826 79.8418 6.33129 77.2891 9.40956 74.9616C12.4127 72.6342 15.7162 70.5319 19.0948 68.6549C22.4734 66.853 26.0772 65.2013 29.7561 64C31.5581 63.3243 33.5101 62.8738 35.3871 62.4233C37.2641 62.0479 39.2162 61.6725 41.1683 61.3722C48.8264 60.3211 56.6347 60.3211 64.2928 60.6965C71.9509 61.0719 79.534 61.6725 87.0419 61.8978C102.133 62.5735 117.149 61.5974 132.315 60.1709C147.406 58.7444 162.572 57.0927 177.663 55.1406C162.872 58.7444 147.781 61.3722 132.69 63.3994C125.107 64.4505 117.524 65.2763 109.866 65.8019C102.208 66.2524 94.5499 66.3275 86.8918 66.1022C79.2337 65.8019 71.5755 65.1262 64.0676 64.6757C60.3136 64.3754 56.5596 64.2252 52.8056 64.2252C49.0516 64.2252 45.2976 64.3754 41.6187 64.6757C39.7417 64.8259 37.9398 65.1262 36.1379 65.4265C34.336 65.8019 32.459 66.1773 30.7322 66.7029C27.1284 67.6038 23.5996 68.9553 20.221 70.5319C16.7674 72.0335 13.4639 73.9105 10.3105 75.9377C6.85685 77.9648 3.77858 80.2172 0.925552 82.6948Z" fill="#8C1A1C"/>
<path d="M109.941 68.1293C119.777 67.3035 129.612 66.3274 139.372 65.0511C144.253 64.4505 149.133 63.7747 153.938 62.9489C158.818 62.1981 163.623 61.222 168.353 60.246L175.561 58.5942L179.165 57.7684C180.366 57.468 181.642 57.3179 182.844 57.0926C187.724 56.1917 192.679 55.5911 197.709 55.2907L201.463 55.0655H205.217C207.695 55.0655 210.173 55.2157 212.725 55.4409C217.681 55.8914 222.636 56.6422 227.291 58.4441C222.411 57.6182 217.53 57.468 212.65 57.5431C207.77 57.6182 202.89 57.9185 198.01 58.4441C193.205 59.0447 188.324 59.6453 183.519 60.6214C178.714 61.5223 173.984 62.5735 169.104 63.6246C159.344 65.5766 149.508 66.7779 139.598 67.5287C129.762 68.1294 119.852 68.4297 109.941 68.1293Z" fill="url(#paint6_linear_1_7)" stroke="url(#paint7_linear_1_7)" stroke-width="0.75" stroke-miterlimit="10" stroke-linecap="round" stroke-linejoin="round"/>
<path d="M158.217 68.9552C164.9 67.3035 171.582 65.7268 178.264 64.3003C181.567 63.5495 184.946 62.7987 188.4 62.1981C191.778 61.5974 195.232 61.0719 198.685 60.6965C205.593 60.0208 212.65 59.7955 219.633 61.222C223.086 61.8977 226.54 63.099 229.543 65.2013C232.546 67.2284 234.724 70.4568 235.174 73.9105C233.898 70.6821 231.495 68.1294 228.567 66.7029C225.639 65.2013 222.411 64.4505 219.107 64C215.804 63.6246 212.425 63.4744 209.121 63.6246C205.743 63.6997 202.364 63.9249 198.986 64.3003C192.229 64.976 185.546 66.1022 178.714 67.1533C171.957 67.9792 165.125 68.73 158.217 68.9552Z" fill="url(#paint8_linear_1_7)" stroke="url(#paint9_linear_1_7)" stroke-width="0.75" stroke-miterlimit="10" stroke-linecap="round" stroke-linejoin="round"/>
<path d="M68.4222 59.5703C73.0771 56.4169 78.1075 53.8642 83.288 51.6118C88.4684 49.4345 93.8742 47.6326 99.355 46.3562C104.836 45.0048 110.542 44.254 116.248 44.0288C119.101 43.9537 121.954 43.9537 124.807 44.254C127.66 44.4793 130.363 44.7796 133.216 45.0799C138.772 45.6805 144.328 46.4313 149.884 47.107L166.476 49.4345C177.513 50.9361 188.625 51.8371 199.812 52.6629C188.625 53.3386 177.363 53.1885 166.176 52.2125C154.989 51.3115 143.877 49.7348 132.841 48.6086C130.063 48.3083 127.285 48.008 124.507 47.7077C121.804 47.4074 119.026 47.4074 116.323 47.4074C110.842 47.4824 105.361 48.0831 99.9556 49.0591C89.0691 51.0112 78.4078 54.615 68.4222 59.5703Z" fill="url(#paint10_linear_1_7)" stroke="url(#paint11_linear_1_7)" stroke-width="0.75" stroke-miterlimit="10" stroke-linecap="round" stroke-linejoin="round"/>
<path d="M15.3408 75.5623C17.5182 73.7603 20.1459 72.5591 22.6987 71.583C25.3264 70.607 28.1044 69.8562 30.8073 69.3306C36.3632 68.2044 41.9941 67.754 47.6251 67.6789C53.2561 67.6789 58.8871 67.9792 64.3679 68.4297L80.9605 69.5559C86.5164 69.9313 92.0723 70.2316 97.5531 70.5319C103.109 70.7572 108.665 70.9824 114.146 71.1326C125.257 71.3578 136.294 70.9073 147.406 70.0814C136.519 72.2588 125.333 73.46 114.146 73.7603C102.959 74.0607 91.7719 73.6853 80.6602 73.0846C75.1043 72.7843 69.5484 72.3338 63.9925 71.8833C58.4366 71.4329 52.9558 70.9073 47.4749 70.7572C41.9941 70.607 36.4382 70.7572 31.0325 71.3578C28.3296 71.7332 25.5517 72.1086 22.9239 72.7843C20.4463 73.385 17.7434 74.1357 15.3408 75.5623Z" fill="#8C1A1C"/>
<path d="M31.9335 82.1693C33.2098 79.1661 35.6874 76.6134 38.6906 74.8865C41.6187 73.1597 45.0724 72.3338 48.5261 72.2588C51.9797 72.2588 55.3583 73.0846 58.3615 74.7364C61.2896 76.3881 63.8423 78.8658 65.1938 81.869C62.9414 79.4664 60.3136 77.7396 57.4605 76.5383C54.6075 75.4121 51.6043 74.8115 48.5261 74.8115C45.4478 74.8115 42.4446 75.4121 39.5916 76.6134C36.7386 77.8897 34.1108 79.7667 31.9335 82.1693Z" fill="#8C1A1C"/>
<path d="M178.414 79.7667C179.84 76.0127 182.618 72.6341 186.072 70.3067C189.526 67.9792 193.805 66.7029 198.01 66.7029C202.214 66.7029 206.494 67.9041 210.022 70.1565C213.551 72.4089 216.329 75.7124 217.831 79.4664C215.278 76.3881 212.275 73.9105 208.821 72.2587C205.443 70.607 201.764 69.706 198.01 69.7811C194.331 69.7811 190.577 70.6821 187.273 72.4089C183.895 74.1357 180.892 76.6134 178.414 79.7667Z" fill="url(#paint12_linear_1_7)" stroke="url(#paint13_linear_1_7)" stroke-width="0.75" stroke-miterlimit="10" stroke-linecap="round" stroke-linejoin="round"/>
<path d="M130.063 103.417L133.591 99.4377H137.42C138.321 99.4377 139.372 99.4377 140.123 99.5127C139.823 98.9872 139.297 98.0112 138.997 97.2604L136.97 93.131L128.035 103.492H122.48L134.718 89.377C135.543 88.476 136.595 87.6501 138.096 87.6501C139.523 87.6501 140.273 88.4009 140.799 89.377L147.856 103.492H130.063V103.417Z" fill="url(#paint14_linear_1_7)"/>
<path d="M168.654 96.5846C167.828 101.315 164.299 103.642 157.917 103.642C151.385 103.642 148.457 101.765 148.457 98.0861C148.457 97.6357 148.532 97.1101 148.607 96.5846L150.109 87.8002H154.839L153.262 96.5846C153.187 96.8849 153.187 97.1852 153.187 97.4104C153.187 99.0622 154.388 99.5877 158.518 99.5877C162.197 99.5877 163.398 98.7619 163.773 96.5095L165.275 87.7252H170.005L168.654 96.5846Z" fill="url(#paint15_linear_1_7)"/>
<path d="M191.853 87.8003L188.099 91.8546H182.618L180.591 103.342H175.861L177.813 91.8546H170.681L174.435 87.8003H191.853Z" fill="url(#paint16_linear_1_7)"/>
<path d="M211.749 94.182C211.749 100.564 207.62 103.717 199.061 103.717C192.454 103.717 189.15 101.615 189.15 97.1101C189.15 90.7283 193.28 87.6501 201.839 87.6501C208.371 87.575 211.749 89.6772 211.749 94.182ZM206.944 94.6325C206.944 92.1549 205.217 91.6293 201.088 91.6293C194.931 91.6293 193.805 92.6053 193.805 96.5845C193.805 99.0622 195.532 99.5877 199.661 99.5877C205.818 99.5877 206.944 98.6117 206.944 94.6325Z" fill="url(#paint17_linear_1_7)"/>
<path d="M236 87.8003L230.444 92.305C227.966 94.2571 227.141 94.8578 226.54 95.3082C226.99 95.6836 228.192 97.1101 229.618 98.6868L233.673 103.342H226.99L222.711 98.1612L216.479 103.342H210.623L216.404 98.6868C219.107 96.5095 219.858 95.9089 220.534 95.5335C220.083 95.083 219.558 94.5574 217.53 92.305L213.626 87.8003H220.158L224.137 92.6054L229.919 87.8003H236Z" fill="url(#paint18_linear_1_7)"/>
<path d="M138.021 87.9504C139.072 87.9504 139.898 88.476 140.424 89.5271L147.256 103.041H130.964L133.892 99.813H137.495C138.396 99.813 139.448 99.813 140.198 99.8881L140.874 99.9631L140.499 99.3625C140.123 98.7619 139.598 97.7108 139.372 97.1101L137.345 92.9807L137.12 92.4552L136.745 92.9057L127.81 103.041H123.23L134.943 89.6022C135.919 88.476 136.895 87.9504 138.021 87.9504ZM138.021 87.575C136.519 87.575 135.468 88.4009 134.642 89.3018L122.404 103.417H127.96L136.895 93.0558L138.922 97.1852C139.297 97.936 139.748 98.912 140.048 99.4376C139.297 99.3625 138.246 99.3625 137.345 99.3625H133.516L129.988 103.342H147.706L140.649 89.2268C140.198 88.3258 139.448 87.575 138.021 87.575Z" fill="#EFEFF8"/>
<path d="M169.78 88.1757L168.353 96.5095C167.527 101.014 164.149 103.267 157.992 103.267C149.884 103.267 148.908 100.263 148.908 98.0862C148.908 97.6357 148.983 97.1852 149.058 96.6597L150.559 88.1757H154.539L153.037 96.5095C152.962 96.8849 152.962 97.1852 152.962 97.4105C152.962 99.5878 154.914 99.9632 158.668 99.9632C162.347 99.9632 163.924 99.0622 164.299 96.5846L165.801 88.1006H169.78M170.23 87.8003H165.5L163.999 96.5846C163.623 98.7619 162.347 99.6628 158.743 99.6628C154.539 99.6628 153.412 99.1373 153.412 97.4855C153.412 97.2603 153.412 96.96 153.487 96.6597L155.064 87.8753H150.334L148.833 96.6597C148.757 97.1852 148.682 97.6357 148.682 98.1612C148.682 101.915 151.61 103.717 158.142 103.717C164.524 103.717 168.053 101.39 168.879 96.6597L170.23 87.8003Z" fill="#EFEFF8"/>
<path d="M190.952 88.1757L187.874 91.4792H182.618H182.318L182.243 91.7795L180.291 102.966H176.312L178.189 91.8546L178.264 91.4041H177.813H171.507L174.585 88.1006H190.952M191.853 87.8003H174.51L170.756 91.8546H177.888L175.936 103.342H180.666L182.618 91.8546H188.024L191.853 87.8003Z" fill="#EFEFF8"/>
<path d="M201.839 87.9504C208.371 87.9504 211.374 89.9025 211.374 94.182C211.374 100.339 207.32 103.342 199.061 103.342C192.529 103.342 189.526 101.39 189.526 97.1101C189.451 90.8785 193.355 87.9504 201.839 87.9504ZM199.737 99.9631C205.968 99.9631 207.395 98.9871 207.395 94.6325C207.395 91.7795 205.292 91.2539 201.163 91.2539C194.931 91.2539 193.505 92.2299 193.505 96.5846C193.43 99.4376 195.532 99.9631 199.737 99.9631ZM201.839 87.575C193.28 87.575 189.15 90.6533 189.15 97.035C189.15 101.54 192.454 103.642 199.061 103.642C207.62 103.642 211.749 100.564 211.749 94.1069C211.749 89.6772 208.371 87.575 201.839 87.575ZM199.737 99.5877C195.607 99.5877 193.88 99.0622 193.88 96.5846C193.88 92.6053 195.007 91.6293 201.163 91.6293C205.292 91.6293 207.019 92.1549 207.019 94.6325C206.944 98.6117 205.818 99.5877 199.737 99.5877Z" fill="#EFEFF8"/>
<path d="M234.874 88.1757L230.144 92.0047C227.666 93.9568 226.84 94.5574 226.24 95.0079L225.864 95.3082L226.24 95.6085C226.615 95.9089 227.591 97.0351 228.792 98.3865L229.318 98.9871L232.847 103.041H227.216L223.011 98.0111L222.786 97.7108L222.486 97.936L216.329 102.966H211.674L216.629 98.9871C219.407 96.7347 220.083 96.2092 220.684 95.8338L221.059 95.5335L220.684 95.2331C220.233 94.8577 219.783 94.3322 217.756 92.0047L214.452 88.1757H220.008L223.912 92.9057L224.137 93.206L224.438 92.9808L230.069 88.2507H234.874M236 87.8003H229.919L224.137 92.6054L220.158 87.8003H213.626L217.53 92.305C219.558 94.5574 220.008 95.1581 220.534 95.5335C219.858 95.9839 219.107 96.5095 216.404 98.6868L210.623 103.342H216.479L222.711 98.1612L226.99 103.342H233.673L229.618 98.6868C228.192 97.1101 226.99 95.6836 226.54 95.3082C227.141 94.8578 227.966 94.2571 230.444 92.305L236 87.8003Z" fill="#EFEFF8"/>
<path d="M24.951 86.7491L13.4639 97.8609L12.5629 103.342H7.53257L8.5086 97.8609L0.550156 86.8242H7.00701L10.0853 91.4041C10.4607 92.0047 11.5869 93.5063 11.8121 94.0318C12.2626 93.5814 12.8632 92.8306 14.2897 91.4041L18.7945 86.8242H24.951V86.7491Z" fill="#8C1A1C"/>
<path d="M24.951 103.267L28.705 98.9871H32.7593C33.7354 98.9871 34.8616 98.9871 35.6124 99.0622C35.237 98.4616 34.7865 97.4855 34.4111 96.6597L32.2338 92.305L22.7737 103.267H16.8424L29.7561 88.3258C30.582 87.3498 31.7082 86.4488 33.2849 86.4488C34.7865 86.4488 35.6124 87.2747 36.1379 88.3258L43.6459 103.267H24.951Z" fill="#8C1A1C"/>
<path d="M64.2928 99.0622L60.3887 103.342H52.28C47.2497 103.342 43.8711 100.263 43.8711 96.059C43.8711 90.6533 48.9765 86.8242 55.1331 86.8242H66.4701L62.4909 91.1038H54.3823C51.3791 91.1038 48.9015 93.0558 48.9015 95.6836C48.9015 97.7108 50.5532 99.0622 53.0308 99.0622H64.2928Z" fill="#8C1A1C"/>
<path d="M70.3742 103.267H65.3439L68.1969 86.7491H73.1522L70.3742 103.267Z" fill="#8C1A1C"/>
<path d="M88.018 102.666L79.6841 93.5814L78.0324 103.267H73.4525L75.78 89.6022C76.1554 87.4249 77.5819 86.5239 79.0835 86.5239C79.6841 86.5239 80.2848 86.6741 80.9605 87.4249L89.2943 96.5095L91.0212 86.8242H95.601L93.1985 100.489C92.8231 102.666 91.3966 103.567 89.97 103.567C89.2192 103.567 88.6937 103.417 88.018 102.666Z" fill="#8C1A1C"/>
<path d="M115.122 99.0622L111.143 103.342H95.601L98.454 86.8242H117.149L113.17 91.1038H102.734L102.358 93.0558H115.122L111.668 96.8098H101.682L101.307 99.0622H115.122Z" fill="#8C1A1C"/>
<path d="M24.4255 86.9744L13.3137 97.6357L13.2386 97.7107V97.7858L12.3377 103.041H7.7578L8.65876 97.8609V97.7858L8.58367 97.7107L0.925549 86.9744H6.78177L9.78495 91.4791L9.93511 91.7044C10.3856 92.3801 11.2865 93.5814 11.4367 94.0318L11.5869 94.3322L11.8121 94.1069L11.9623 93.9568C12.4127 93.5063 13.0134 92.7555 14.2897 91.4791L18.7194 86.9744H24.4255ZM24.951 86.7491H18.6444L14.1396 91.329C12.7131 92.7555 12.1124 93.5063 11.6619 93.9568C11.4367 93.4312 10.3856 91.9296 9.93511 91.329L6.85684 86.7491H0.399994L8.35844 97.7858L7.3824 103.267H12.4127L13.3137 97.7858L24.951 86.7491Z" fill="#A9A8A9"/>
<path d="M33.36 86.7491C34.5612 86.7491 35.4622 87.3498 36.0628 88.476L43.4207 103.041H25.4766L28.8552 99.2124H32.7593C33.7354 99.2124 34.8616 99.2124 35.6124 99.2874H36.0628L35.8376 98.912C35.4622 98.2363 34.9366 97.1101 34.6363 96.5095L32.459 92.1549L32.3089 91.8546L32.0836 92.0798L22.6987 102.966H17.368L29.9814 88.4009C31.0325 87.2747 32.0836 86.7491 33.36 86.7491ZM33.36 86.5239C31.7833 86.5239 30.6571 87.4249 29.8312 88.4009L16.9175 103.342H22.8488L32.3089 92.3801L34.4862 96.7347C34.8616 97.5606 35.3871 98.5367 35.6874 99.1373C34.9366 99.0622 33.8104 99.0622 32.8344 99.0622H28.705L24.951 103.342H43.721L36.213 88.4009C35.6874 87.3498 34.8616 86.5239 33.36 86.5239Z" fill="#A9A8A9"/>
<path d="M65.9446 86.9744L62.4158 90.8034H54.3823C51.1539 90.8034 48.6762 92.9057 48.6762 95.6085C48.6762 97.7858 50.4031 99.2123 53.0308 99.2123H63.8423L60.3136 103.041H52.28C47.4749 103.041 44.0964 100.113 44.0964 95.9839C44.0964 90.8785 48.8264 86.9744 55.1331 86.9744H65.9446ZM66.4701 86.7491H55.1331C48.9765 86.7491 43.8711 90.5782 43.8711 95.9839C43.8711 100.188 47.2497 103.267 52.28 103.267H60.3887L64.2928 98.9871H52.9558C50.5532 98.9871 48.8264 97.6357 48.8264 95.6085C48.8264 92.9807 51.304 91.0287 54.3072 91.0287H62.4909L66.4701 86.7491Z" fill="#A9A8A9"/>
<path d="M73.002 86.9744L70.2241 103.041H65.6442L68.4222 86.9744H73.002ZM73.2273 86.7491H68.272L65.419 103.267H70.4493L73.2273 86.7491Z" fill="#A9A8A9"/>
<path d="M79.0835 86.7491C79.609 86.7491 80.1346 86.8242 80.8103 87.575L89.1442 96.6597L89.4445 96.96L89.5196 96.5095L91.1713 86.9744H95.2256L92.8981 100.414C92.5978 102.216 91.4716 103.342 89.895 103.342C89.2943 103.342 88.8438 103.192 88.1681 102.516L79.8343 93.4312L79.534 93.0558L79.4589 93.5063L77.8071 103.041H73.7528L76.0052 89.6022C76.4557 86.9744 78.3327 86.7491 79.0835 86.7491ZM79.0835 86.5239C77.5819 86.5239 76.1554 87.4249 75.78 89.6022L73.4525 103.267H78.0324L79.6841 93.5814L88.018 102.666C88.6937 103.417 89.2192 103.567 89.895 103.567C91.3215 103.567 92.748 102.666 93.1234 100.489L95.5259 86.8242H90.9461L89.2192 96.5095L80.9605 87.3498C80.2848 86.6741 79.6841 86.5239 79.0835 86.5239Z" fill="#A9A8A9"/>
<path d="M116.698 86.9744L113.095 90.8034H102.734H102.508V90.9536L102.133 92.9056L102.058 93.206H102.358H114.596L111.518 96.5095H101.682H101.532V96.6596L101.157 98.912L101.082 99.2123H101.382H114.671L111.143 103.041H95.9764L98.7544 86.9744H116.698ZM117.224 86.7491H98.5291L95.6761 103.267H111.218L115.197 98.9871H101.457L101.833 96.7347H111.818L115.272 92.9807H102.508L102.884 91.0287H113.32L117.224 86.7491Z" fill="#A9A8A9"/>
<defs>
<linearGradient id="paint0_linear_1_7" x1="148.044" y1="7.39942" x2="186.846" y2="74.6073" gradientUnits="userSpaceOnUse">
<stop stop-color="#8A8A95"/>
<stop offset="0.0410265" stop-color="#9C9BA5"/>
<stop offset="0.1349" stop-color="#C6C4CC"/>
<stop offset="0.2066" stop-color="#E3E2E9"/>
<stop offset="0.2472" stop-color="#EFEFF8"/>
<stop offset="0.2649" stop-color="#E6E6ED"/>
<stop offset="0.3718" stop-color="#BBBAC2"/>
<stop offset="0.4672" stop-color="#9F9EA8"/>
<stop offset="0.5469" stop-color="#908F9A"/>
<stop offset="0.6009" stop-color="#8A8A95"/>
<stop offset="0.6134" stop-color="#9F9EA8"/>
<stop offset="0.6295" stop-color="#B5B4BD"/>
<stop offset="0.648" stop-color="#C9C8D0"/>
<stop offset="0.6697" stop-color="#D9D9E0"/>
<stop offset="0.6964" stop-color="#E6E5EC"/>
<stop offset="0.734" stop-color="#EDEDF5"/>
<stop offset="0.8382" stop-color="#EFEFF8"/>
<stop offset="0.8436" stop-color="#ECECF4"/>
<stop offset="0.948" stop-color="#C0C0C7"/>
<stop offset="1" stop-color="#B1B1B8"/>
</linearGradient>
<linearGradient id="paint1_linear_1_7" x1="109.372" y1="29.7264" x2="148.175" y2="96.9342" gradientUnits="userSpaceOnUse">
<stop stop-color="#8A8A95"/>
<stop offset="0.0410265" stop-color="#9C9BA5"/>
<stop offset="0.1349" stop-color="#C6C4CC"/>
<stop offset="0.2066" stop-color="#E3E2E9"/>
<stop offset="0.2472" stop-color="#EFEFF8"/>
<stop offset="0.2649" stop-color="#E6E6ED"/>
<stop offset="0.3718" stop-color="#BBBAC2"/>
<stop offset="0.4672" stop-color="#9F9EA8"/>
<stop offset="0.5469" stop-color="#908F9A"/>
<stop offset="0.6009" stop-color="#8A8A95"/>
<stop offset="0.6134" stop-color="#9F9EA8"/>
<stop offset="0.6295" stop-color="#B5B4BD"/>
<stop offset="0.648" stop-color="#C9C8D0"/>
<stop offset="0.6697" stop-color="#D9D9E0"/>
<stop offset="0.6964" stop-color="#E6E5EC"/>
<stop offset="0.734" stop-color="#EDEDF5"/>
<stop offset="0.8382" stop-color="#EFEFF8"/>
<stop offset="0.8436" stop-color="#ECECF4"/>
<stop offset="0.948" stop-color="#C0C0C7"/>
<stop offset="1" stop-color="#B1B1B8"/>
</linearGradient>
<linearGradient id="paint2_linear_1_7" x1="106.462" y1="31.4066" x2="145.265" y2="98.6144" gradientUnits="userSpaceOnUse">
<stop stop-color="#8A8A95"/>
<stop offset="0.0410265" stop-color="#9C9BA5"/>
<stop offset="0.1349" stop-color="#C6C4CC"/>
<stop offset="0.2066" stop-color="#E3E2E9"/>
<stop offset="0.2472" stop-color="#EFEFF8"/>
<stop offset="0.2649" stop-color="#E6E6ED"/>
<stop offset="0.3718" stop-color="#BBBAC2"/>
<stop offset="0.4672" stop-color="#9F9EA8"/>
<stop offset="0.5469" stop-color="#908F9A"/>
<stop offset="0.6009" stop-color="#8A8A95"/>
<stop offset="0.6134" stop-color="#9F9EA8"/>
<stop offset="0.6295" stop-color="#B5B4BD"/>
<stop offset="0.648" stop-color="#C9C8D0"/>
<stop offset="0.6697" stop-color="#D9D9E0"/>
<stop offset="0.6964" stop-color="#E6E5EC"/>
<stop offset="0.734" stop-color="#EDEDF5"/>
<stop offset="0.8382" stop-color="#EFEFF8"/>
<stop offset="0.8436" stop-color="#ECECF4"/>
<stop offset="0.948" stop-color="#C0C0C7"/>
<stop offset="1" stop-color="#B1B1B8"/>
</linearGradient>
<linearGradient id="paint3_linear_1_7" x1="78.7612" y1="112.149" x2="140.995" y2="4.35708" gradientUnits="userSpaceOnUse">
<stop stop-color="#EFEFF8"/>
<stop offset="0.0154159" stop-color="#E6E6ED"/>
<stop offset="0.1081" stop-color="#BBBAC2"/>
<stop offset="0.1909" stop-color="#9F9EA8"/>
<stop offset="0.2599" stop-color="#908F9A"/>
<stop offset="0.3068" stop-color="#8A8A95"/>
<stop offset="0.3216" stop-color="#9F9EA8"/>
<stop offset="0.3408" stop-color="#B5B4BD"/>
<stop offset="0.3628" stop-color="#C9C8D0"/>
<stop offset="0.3885" stop-color="#D9D9E0"/>
<stop offset="0.4203" stop-color="#E6E5EC"/>
<stop offset="0.465" stop-color="#EDEDF5"/>
<stop offset="0.5888" stop-color="#EFEFF8"/>
<stop offset="0.6012" stop-color="#EBEBF2"/>
<stop offset="0.7014" stop-color="#D0D0D6"/>
<stop offset="0.8017" stop-color="#BEBEC5"/>
<stop offset="0.9014" stop-color="#B4B4BB"/>
<stop offset="1" stop-color="#B1B1B8"/>
</linearGradient>
<linearGradient id="paint4_linear_1_7" x1="109.413" y1="29.7031" x2="148.215" y2="96.911" gradientUnits="userSpaceOnUse">
<stop stop-color="#8A8A95"/>
<stop offset="0.0410265" stop-color="#9C9BA5"/>
<stop offset="0.1349" stop-color="#C6C4CC"/>
<stop offset="0.2066" stop-color="#E3E2E9"/>
<stop offset="0.2472" stop-color="#EFEFF8"/>
<stop offset="0.2649" stop-color="#E6E6ED"/>
<stop offset="0.3718" stop-color="#BBBAC2"/>
<stop offset="0.4672" stop-color="#9F9EA8"/>
<stop offset="0.5469" stop-color="#908F9A"/>
<stop offset="0.6009" stop-color="#8A8A95"/>
<stop offset="0.6134" stop-color="#9F9EA8"/>
<stop offset="0.6295" stop-color="#B5B4BD"/>
<stop offset="0.648" stop-color="#C9C8D0"/>
<stop offset="0.6697" stop-color="#D9D9E0"/>
<stop offset="0.6964" stop-color="#E6E5EC"/>
<stop offset="0.734" stop-color="#EDEDF5"/>
<stop offset="0.8382" stop-color="#EFEFF8"/>
<stop offset="0.8436" stop-color="#ECECF4"/>
<stop offset="0.948" stop-color="#C0C0C7"/>
<stop offset="1" stop-color="#B1B1B8"/>
</linearGradient>
<linearGradient id="paint5_linear_1_7" x1="75.7107" y1="110.388" x2="137.944" y2="2.59585" gradientUnits="userSpaceOnUse">
<stop stop-color="#EFEFF8"/>
<stop offset="0.0154159" stop-color="#E6E6ED"/>
<stop offset="0.1081" stop-color="#BBBAC2"/>
<stop offset="0.1909" stop-color="#9F9EA8"/>
<stop offset="0.2599" stop-color="#908F9A"/>
<stop offset="0.3068" stop-color="#8A8A95"/>
<stop offset="0.3216" stop-color="#9F9EA8"/>
<stop offset="0.3408" stop-color="#B5B4BD"/>
<stop offset="0.3628" stop-color="#C9C8D0"/>
<stop offset="0.3885" stop-color="#D9D9E0"/>
<stop offset="0.4203" stop-color="#E6E5EC"/>
<stop offset="0.465" stop-color="#EDEDF5"/>
<stop offset="0.5888" stop-color="#EFEFF8"/>
<stop offset="0.6012" stop-color="#EBEBF2"/>
<stop offset="0.7014" stop-color="#D0D0D6"/>
<stop offset="0.8017" stop-color="#BEBEC5"/>
<stop offset="0.9014" stop-color="#B4B4BB"/>
<stop offset="1" stop-color="#B1B1B8"/>
</linearGradient>
<linearGradient id="paint6_linear_1_7" x1="161.929" y1="51.6658" x2="177.571" y2="78.7589" gradientUnits="userSpaceOnUse">
<stop stop-color="#EFEFF8"/>
<stop offset="0.0164829" stop-color="#E6E5EC"/>
<stop offset="0.1087" stop-color="#BBB9C2"/>
<stop offset="0.1911" stop-color="#9F9EA8"/>
<stop offset="0.2599" stop-color="#908F9A"/>
<stop offset="0.3068" stop-color="#8A8A95"/>
<stop offset="0.3216" stop-color="#9F9EA8"/>
<stop offset="0.3408" stop-color="#B5B4BD"/>
<stop offset="0.3628" stop-color="#C9C8D0"/>
<stop offset="0.3885" stop-color="#D9D9E0"/>
<stop offset="0.4203" stop-color="#E6E5EC"/>
<stop offset="0.465" stop-color="#EDEDF5"/>
<stop offset="0.5888" stop-color="#EFEFF8"/>
<stop offset="0.6021" stop-color="#EBEAF1"/>
<stop offset="0.7017" stop-color="#D0CFD6"/>
<stop offset="0.8016" stop-color="#BEBEC5"/>
<stop offset="0.9012" stop-color="#B4B4BB"/>
<stop offset="1" stop-color="#B1B1B8"/>
</linearGradient>
<linearGradient id="paint7_linear_1_7" x1="151.689" y1="92.5308" x2="185.522" y2="33.9297" gradientUnits="userSpaceOnUse">
<stop stop-color="#EFEFF8"/>
<stop offset="0.0164829" stop-color="#E6E5EC"/>
<stop offset="0.1087" stop-color="#BBB9C2"/>
<stop offset="0.1911" stop-color="#9F9EA8"/>
<stop offset="0.2599" stop-color="#908F9A"/>
<stop offset="0.3068" stop-color="#8A8A95"/>
<stop offset="0.3216" stop-color="#9F9EA8"/>
<stop offset="0.3408" stop-color="#B5B4BD"/>
<stop offset="0.3628" stop-color="#C9C8D0"/>
<stop offset="0.3885" stop-color="#D9D9E0"/>
<stop offset="0.4203" stop-color="#E6E5EC"/>
<stop offset="0.465" stop-color="#EDEDF5"/>
<stop offset="0.5888" stop-color="#EFEFF8"/>
<stop offset="0.6021" stop-color="#EBEAF1"/>
<stop offset="0.7017" stop-color="#D0CFD6"/>
<stop offset="0.8016" stop-color="#BEBEC5"/>
<stop offset="0.9012" stop-color="#B4B4BB"/>
<stop offset="1" stop-color="#B1B1B8"/>
</linearGradient>
<linearGradient id="paint8_linear_1_7" x1="191.398" y1="61.3341" x2="204.7" y2="84.3741" gradientUnits="userSpaceOnUse">
<stop stop-color="#EFEFF8"/>
<stop offset="0.0164829" stop-color="#E6E5EC"/>
<stop offset="0.1087" stop-color="#BBB9C2"/>
<stop offset="0.1911" stop-color="#9F9EA8"/>
<stop offset="0.2599" stop-color="#908F9A"/>
<stop offset="0.3068" stop-color="#8A8A95"/>
<stop offset="0.3216" stop-color="#9F9EA8"/>
<stop offset="0.3408" stop-color="#B5B4BD"/>
<stop offset="0.3628" stop-color="#C9C8D0"/>
<stop offset="0.3885" stop-color="#D9D9E0"/>
<stop offset="0.4203" stop-color="#E6E5EC"/>
<stop offset="0.465" stop-color="#EDEDF5"/>
<stop offset="0.5888" stop-color="#EFEFF8"/>
<stop offset="0.6021" stop-color="#EBEAF1"/>
<stop offset="0.7017" stop-color="#D0CFD6"/>
<stop offset="0.8016" stop-color="#BEBEC5"/>
<stop offset="0.9012" stop-color="#B4B4BB"/>
<stop offset="1" stop-color="#B1B1B8"/>
</linearGradient>
<linearGradient id="paint9_linear_1_7" x1="188" y1="86.4752" x2="207.83" y2="52.1291" gradientUnits="userSpaceOnUse">
<stop stop-color="#EFEFF8"/>
<stop offset="0.0164829" stop-color="#E6E5EC"/>
<stop offset="0.1087" stop-color="#BBB9C2"/>
<stop offset="0.1911" stop-color="#9F9EA8"/>
<stop offset="0.2599" stop-color="#908F9A"/>
<stop offset="0.3068" stop-color="#8A8A95"/>
<stop offset="0.3216" stop-color="#9F9EA8"/>
<stop offset="0.3408" stop-color="#B5B4BD"/>
<stop offset="0.3628" stop-color="#C9C8D0"/>
<stop offset="0.3885" stop-color="#D9D9E0"/>
<stop offset="0.4203" stop-color="#E6E5EC"/>
<stop offset="0.465" stop-color="#EDEDF5"/>
<stop offset="0.5888" stop-color="#EFEFF8"/>
<stop offset="0.6021" stop-color="#EBEAF1"/>
<stop offset="0.7017" stop-color="#D0CFD6"/>
<stop offset="0.8016" stop-color="#BEBEC5"/>
<stop offset="0.9012" stop-color="#B4B4BB"/>
<stop offset="1" stop-color="#B1B1B8"/>
</linearGradient>
<linearGradient id="paint10_linear_1_7" x1="126.083" y1="42.1899" x2="144.746" y2="74.5152" gradientUnits="userSpaceOnUse">
<stop stop-color="#EFEFF8"/>
<stop offset="0.0164829" stop-color="#E6E5EC"/>
<stop offset="0.1087" stop-color="#BBB9C2"/>
<stop offset="0.1911" stop-color="#9F9EA8"/>
<stop offset="0.2599" stop-color="#908F9A"/>
<stop offset="0.3068" stop-color="#8A8A95"/>
<stop offset="0.3216" stop-color="#9F9EA8"/>
<stop offset="0.3408" stop-color="#B5B4BD"/>
<stop offset="0.3628" stop-color="#C9C8D0"/>
<stop offset="0.3885" stop-color="#D9D9E0"/>
<stop offset="0.4203" stop-color="#E6E5EC"/>
<stop offset="0.465" stop-color="#EDEDF5"/>
<stop offset="0.5888" stop-color="#EFEFF8"/>
<stop offset="0.6021" stop-color="#EBEAF1"/>
<stop offset="0.7017" stop-color="#D0CFD6"/>
<stop offset="0.8016" stop-color="#BEBEC5"/>
<stop offset="0.9012" stop-color="#B4B4BB"/>
<stop offset="1" stop-color="#B1B1B8"/>
</linearGradient>
<linearGradient id="paint11_linear_1_7" x1="116.026" y1="87.3724" x2="152.169" y2="24.7702" gradientUnits="userSpaceOnUse">
<stop stop-color="#EFEFF8"/>
<stop offset="0.0164829" stop-color="#E6E5EC"/>
<stop offset="0.1087" stop-color="#BBB9C2"/>
<stop offset="0.1911" stop-color="#9F9EA8"/>
<stop offset="0.2599" stop-color="#908F9A"/>
<stop offset="0.3068" stop-color="#8A8A95"/>
<stop offset="0.3216" stop-color="#9F9EA8"/>
<stop offset="0.3408" stop-color="#B5B4BD"/>
<stop offset="0.3628" stop-color="#C9C8D0"/>
<stop offset="0.3885" stop-color="#D9D9E0"/>
<stop offset="0.4203" stop-color="#E6E5EC"/>
<stop offset="0.465" stop-color="#EDEDF5"/>
<stop offset="0.5888" stop-color="#EFEFF8"/>
<stop offset="0.6021" stop-color="#EBEAF1"/>
<stop offset="0.7017" stop-color="#D0CFD6"/>
<stop offset="0.8016" stop-color="#BEBEC5"/>
<stop offset="0.9012" stop-color="#B4B4BB"/>
<stop offset="1" stop-color="#B1B1B8"/>
</linearGradient>
<linearGradient id="paint12_linear_1_7" x1="193.931" y1="72.2034" x2="201.368" y2="85.0858" gradientUnits="userSpaceOnUse">
<stop stop-color="#EFEFF8"/>
<stop offset="0.0164829" stop-color="#E6E5EC"/>
<stop offset="0.1087" stop-color="#BBB9C2"/>
<stop offset="0.1911" stop-color="#9F9EA8"/>
<stop offset="0.2599" stop-color="#908F9A"/>
<stop offset="0.3068" stop-color="#8A8A95"/>
<stop offset="0.3216" stop-color="#9F9EA8"/>
<stop offset="0.3408" stop-color="#B5B4BD"/>
<stop offset="0.3628" stop-color="#C9C8D0"/>
<stop offset="0.3885" stop-color="#D9D9E0"/>
<stop offset="0.4203" stop-color="#E6E5EC"/>
<stop offset="0.465" stop-color="#EDEDF5"/>
<stop offset="0.5888" stop-color="#EFEFF8"/>
<stop offset="0.6021" stop-color="#EBEAF1"/>
<stop offset="0.7017" stop-color="#D0CFD6"/>
<stop offset="0.8016" stop-color="#BEBEC5"/>
<stop offset="0.9012" stop-color="#B4B4BB"/>
<stop offset="1" stop-color="#B1B1B8"/>
</linearGradient>
<linearGradient id="paint13_linear_1_7" x1="192.88" y1="88.4603" x2="205.231" y2="67.067" gradientUnits="userSpaceOnUse">
<stop stop-color="#EFEFF8"/>
<stop offset="0.0164829" stop-color="#E6E5EC"/>
<stop offset="0.1087" stop-color="#BBB9C2"/>
<stop offset="0.1911" stop-color="#9F9EA8"/>
<stop offset="0.2599" stop-color="#908F9A"/>
<stop offset="0.3068" stop-color="#8A8A95"/>
<stop offset="0.3216" stop-color="#9F9EA8"/>
<stop offset="0.3408" stop-color="#B5B4BD"/>
<stop offset="0.3628" stop-color="#C9C8D0"/>
<stop offset="0.3885" stop-color="#D9D9E0"/>
<stop offset="0.4203" stop-color="#E6E5EC"/>
<stop offset="0.465" stop-color="#EDEDF5"/>
<stop offset="0.5888" stop-color="#EFEFF8"/>
<stop offset="0.6021" stop-color="#EBEAF1"/>
<stop offset="0.7017" stop-color="#D0CFD6"/>
<stop offset="0.8016" stop-color="#BEBEC5"/>
<stop offset="0.9012" stop-color="#B4B4BB"/>
<stop offset="1" stop-color="#B1B1B8"/>
</linearGradient>
<linearGradient id="paint14_linear_1_7" x1="172.412" y1="83.8766" x2="191.751" y2="117.373" gradientUnits="userSpaceOnUse">
<stop stop-color="#B1B1B8"/>
<stop offset="0.0838156" stop-color="#C9C8CF"/>
<stop offset="0.1879" stop-color="#E4E4EA"/>
<stop offset="0.2472" stop-color="#EFEFF8"/>
<stop offset="0.2812" stop-color="#E6E6EC"/>
<stop offset="0.5196" stop-color="#B1B1B8"/>
<stop offset="0.671" stop-color="#CECED5"/>
<stop offset="0.8382" stop-color="#EFEFF8"/>
<stop offset="0.8467" stop-color="#EBEBF2"/>
<stop offset="0.9489" stop-color="#C0BFC7"/>
<stop offset="1" stop-color="#B1B1B8"/>
</linearGradient>
<linearGradient id="paint15_linear_1_7" x1="172.412" y1="83.8765" x2="191.751" y2="117.373" gradientUnits="userSpaceOnUse">
<stop stop-color="#B1B1B8"/>
<stop offset="0.0838156" stop-color="#C9C8CF"/>
<stop offset="0.1879" stop-color="#E4E4EA"/>
<stop offset="0.2472" stop-color="#EFEFF8"/>
<stop offset="0.2812" stop-color="#E6E6EC"/>
<stop offset="0.5196" stop-color="#B1B1B8"/>
<stop offset="0.671" stop-color="#CECED5"/>
<stop offset="0.8382" stop-color="#EFEFF8"/>
<stop offset="0.8467" stop-color="#EBEBF2"/>
<stop offset="0.9489" stop-color="#C0BFC7"/>
<stop offset="1" stop-color="#B1B1B8"/>
</linearGradient>
<linearGradient id="paint16_linear_1_7" x1="172.412" y1="83.8765" x2="191.751" y2="117.373" gradientUnits="userSpaceOnUse">
<stop stop-color="#B1B1B8"/>
<stop offset="0.0838156" stop-color="#C9C8CF"/>
<stop offset="0.1879" stop-color="#E4E4EA"/>
<stop offset="0.2472" stop-color="#EFEFF8"/>
<stop offset="0.2812" stop-color="#E6E6EC"/>
<stop offset="0.5196" stop-color="#B1B1B8"/>
<stop offset="0.671" stop-color="#CECED5"/>
<stop offset="0.8382" stop-color="#EFEFF8"/>
<stop offset="0.8467" stop-color="#EBEBF2"/>
<stop offset="0.9489" stop-color="#C0BFC7"/>
<stop offset="1" stop-color="#B1B1B8"/>
</linearGradient>
<linearGradient id="paint17_linear_1_7" x1="172.412" y1="83.8765" x2="191.751" y2="117.373" gradientUnits="userSpaceOnUse">
<stop stop-color="#B1B1B8"/>
<stop offset="0.0838156" stop-color="#C9C8CF"/>
<stop offset="0.1879" stop-color="#E4E4EA"/>
<stop offset="0.2472" stop-color="#EFEFF8"/>
<stop offset="0.2812" stop-color="#E6E6EC"/>
<stop offset="0.5196" stop-color="#B1B1B8"/>
<stop offset="0.671" stop-color="#CECED5"/>
<stop offset="0.8382" stop-color="#EFEFF8"/>
<stop offset="0.8467" stop-color="#EBEBF2"/>
<stop offset="0.9489" stop-color="#C0BFC7"/>
<stop offset="1" stop-color="#B1B1B8"/>
</linearGradient>
<linearGradient id="paint18_linear_1_7" x1="172.412" y1="83.8765" x2="191.751" y2="117.373" gradientUnits="userSpaceOnUse">
<stop stop-color="#B1B1B8"/>
<stop offset="0.0838156" stop-color="#C9C8CF"/>
<stop offset="0.1879" stop-color="#E4E4EA"/>
<stop offset="0.2472" stop-color="#EFEFF8"/>
<stop offset="0.2812" stop-color="#E6E6EC"/>
<stop offset="0.5196" stop-color="#B1B1B8"/>
<stop offset="0.671" stop-color="#CECED5"/>
<stop offset="0.8382" stop-color="#EFEFF8"/>
<stop offset="0.8467" stop-color="#EBEBF2"/>
<stop offset="0.9489" stop-color="#C0BFC7"/>
<stop offset="1" stop-color="#B1B1B8"/>
</linearGradient>
</defs>
</svg>
